<mxfile host="app.diagrams.net" agent="Mozilla/5.0 (X11; Linux x86_64) AppleWebKit/537.36 (KHTML, like Gecko) Chrome/137.0.0.0 Safari/537.36" version="28.1.0">
  <diagram name="Page-1" id="jZJRkNR2IOGawkYn1y5_">
    <mxGraphModel grid="1" page="1" gridSize="10" guides="1" tooltips="1" connect="1" arrows="1" fold="1" pageScale="1" pageWidth="1100" pageHeight="850" math="0" shadow="0">
      <root>
        <mxCell id="0" />
        <mxCell id="1" parent="0" />
        <mxCell id="bJXX9XfOQg-0xpeQix21-1" value="" style="rounded=0;whiteSpace=wrap;html=1;" vertex="1" parent="1">
          <mxGeometry x="1570" y="-179" width="320" height="1629" as="geometry" />
        </mxCell>
        <mxCell id="bJXX9XfOQg-0xpeQix21-12" value="" style="group" connectable="0" vertex="1" parent="1">
          <mxGeometry x="1586.75" y="125" width="310" height="230" as="geometry" />
        </mxCell>
        <mxCell id="bJXX9XfOQg-0xpeQix21-21" value="" style="group" connectable="0" vertex="1" parent="bJXX9XfOQg-0xpeQix21-12">
          <mxGeometry x="33.513513513513516" width="221.05910633484163" height="216.19710252982313" as="geometry" />
        </mxCell>
        <mxCell id="bJXX9XfOQg-0xpeQix21-13" value="" style="ellipse;whiteSpace=wrap;html=1;aspect=fixed;" vertex="1" parent="bJXX9XfOQg-0xpeQix21-21">
          <mxGeometry width="216.19710252982313" height="216.19710252982313" as="geometry" />
        </mxCell>
        <mxCell id="bJXX9XfOQg-0xpeQix21-14" value="&lt;span style=&quot;color: rgb(38, 38, 38); font-family: -apple-system, BlinkMacSystemFont, &amp;quot;Segoe UI&amp;quot;, Helvetica, Arial, sans-serif, &amp;quot;Apple Color Emoji&amp;quot;, &amp;quot;Segoe UI Emoji&amp;quot;; font-size: 20px; font-weight: 600; text-align: start; background-color: rgb(255, 255, 255);&quot;&gt;Video/Appointment Management&lt;/span&gt;" style="text;html=1;align=center;verticalAlign=middle;whiteSpace=wrap;rounded=0;" vertex="1" parent="bJXX9XfOQg-0xpeQix21-21">
          <mxGeometry x="16.65303821062441" y="79.30818181818181" width="187.74241379310342" height="71.38363636363636" as="geometry" />
        </mxCell>
        <mxCell id="bJXX9XfOQg-0xpeQix21-19" value="" style="group" connectable="0" vertex="1" parent="1">
          <mxGeometry x="1621.99875" y="-84" width="209.82456140350874" height="209.82456140350874" as="geometry" />
        </mxCell>
        <mxCell id="bJXX9XfOQg-0xpeQix21-4" value="" style="ellipse;whiteSpace=wrap;html=1;aspect=fixed;" vertex="1" parent="bJXX9XfOQg-0xpeQix21-19">
          <mxGeometry width="209.82456140350874" height="209.82456140350874" as="geometry" />
        </mxCell>
        <mxCell id="bJXX9XfOQg-0xpeQix21-5" value="&lt;span style=&quot;color: rgb(38, 38, 38); font-family: -apple-system, BlinkMacSystemFont, &amp;quot;Segoe UI&amp;quot;, Helvetica, Arial, sans-serif, &amp;quot;Apple Color Emoji&amp;quot;, &amp;quot;Segoe UI Emoji&amp;quot;; font-size: 20px; font-weight: 600; text-align: start; background-color: rgb(255, 255, 255);&quot;&gt;User Management&lt;/span&gt;" style="text;html=1;align=center;verticalAlign=middle;whiteSpace=wrap;rounded=0;" vertex="1" parent="bJXX9XfOQg-0xpeQix21-19">
          <mxGeometry x="6.631250000000001" y="64.69" width="196.56" height="88.62" as="geometry" />
        </mxCell>
        <mxCell id="bJXX9XfOQg-0xpeQix21-22" value="" style="group" connectable="0" vertex="1" parent="1">
          <mxGeometry x="1621.51" y="781" width="220" height="220" as="geometry" />
        </mxCell>
        <mxCell id="bJXX9XfOQg-0xpeQix21-16" value="" style="ellipse;whiteSpace=wrap;html=1;aspect=fixed;" vertex="1" parent="bJXX9XfOQg-0xpeQix21-22">
          <mxGeometry width="220" height="220" as="geometry" />
        </mxCell>
        <mxCell id="bJXX9XfOQg-0xpeQix21-17" value="&lt;span style=&quot;color: rgb(38, 38, 38); font-family: -apple-system, BlinkMacSystemFont, &amp;quot;Segoe UI&amp;quot;, Helvetica, Arial, sans-serif, &amp;quot;Apple Color Emoji&amp;quot;, &amp;quot;Segoe UI Emoji&amp;quot;; font-size: 20px; font-weight: 600; text-align: start; background-color: rgb(255, 255, 255);&quot;&gt;Payment &amp;amp; Billing&lt;/span&gt;" style="text;html=1;align=center;verticalAlign=middle;whiteSpace=wrap;rounded=0;" vertex="1" parent="bJXX9XfOQg-0xpeQix21-22">
          <mxGeometry x="11.379310344827585" y="75.86206896551724" width="197.24137931034483" height="68.27586206896551" as="geometry" />
        </mxCell>
        <mxCell id="bJXX9XfOQg-0xpeQix21-23" value="&lt;font style=&quot;font-size: 24px; color: rgb(51, 153, 255); background-color: rgb(255, 255, 255);&quot;&gt;Doctor&lt;/font&gt;" style="rounded=0;whiteSpace=wrap;html=1;" vertex="1" parent="1">
          <mxGeometry x="2540" y="-150" width="317" height="150" as="geometry" />
        </mxCell>
        <mxCell id="bJXX9XfOQg-0xpeQix21-24" value="&lt;font style=&quot;font-size: 24px; color: rgb(51, 153, 255); background-color: rgb(255, 255, 255);&quot;&gt;Hospital&lt;/font&gt;" style="rounded=0;whiteSpace=wrap;html=1;" vertex="1" parent="1">
          <mxGeometry x="2460" y="790" width="338" height="136" as="geometry" />
        </mxCell>
        <mxCell id="bJXX9XfOQg-0xpeQix21-25" value="&lt;font color=&quot;#3399ff&quot;&gt;&lt;span style=&quot;font-size: 24px; background-color: rgb(255, 255, 255);&quot;&gt;Patient&lt;/span&gt;&lt;/font&gt;" style="rounded=0;whiteSpace=wrap;html=1;" vertex="1" parent="1">
          <mxGeometry x="763" y="-110" width="337" height="150" as="geometry" />
        </mxCell>
        <mxCell id="bJXX9XfOQg-0xpeQix21-26" value="&lt;font style=&quot;font-size: 24px; color: rgb(51, 153, 255); background-color: rgb(255, 255, 255);&quot;&gt;Nurse&lt;/font&gt;" style="rounded=0;whiteSpace=wrap;html=1;" vertex="1" parent="1">
          <mxGeometry x="2410" y="395" width="317" height="150" as="geometry" />
        </mxCell>
        <mxCell id="bJXX9XfOQg-0xpeQix21-27" value="&lt;font style=&quot;font-size: 24px; color: rgb(51, 153, 255); background-color: rgb(255, 255, 255);&quot;&gt;Pharmecy&lt;/font&gt;" style="rounded=0;whiteSpace=wrap;html=1;" vertex="1" parent="1">
          <mxGeometry x="746.5" y="1040" width="317" height="150" as="geometry" />
        </mxCell>
        <mxCell id="bJXX9XfOQg-0xpeQix21-28" value="&lt;font color=&quot;#3399ff&quot;&gt;&lt;span style=&quot;font-size: 24px; background-color: rgb(255, 255, 255);&quot;&gt;Insurance&lt;/span&gt;&lt;/font&gt;" style="rounded=0;whiteSpace=wrap;html=1;" vertex="1" parent="1">
          <mxGeometry x="770" y="670" width="317" height="145" as="geometry" />
        </mxCell>
        <mxCell id="bJXX9XfOQg-0xpeQix21-29" value="&lt;font style=&quot;font-size: 24px; color: rgb(51, 153, 255); background-color: rgb(255, 255, 255);&quot;&gt;Bank&lt;/font&gt;" style="rounded=0;whiteSpace=wrap;html=1;" vertex="1" parent="1">
          <mxGeometry x="770" y="395" width="340" height="140" as="geometry" />
        </mxCell>
        <mxCell id="bJXX9XfOQg-0xpeQix21-31" value="&lt;font style=&quot;font-size: 24px;&quot; face=&quot;Verdana&quot; color=&quot;#0069d1&quot;&gt;&lt;span style=&quot;background-color: rgb(255, 255, 255);&quot;&gt;Admin&lt;/span&gt;&lt;/font&gt;" style="rounded=0;whiteSpace=wrap;html=1;" vertex="1" parent="1">
          <mxGeometry x="2460" y="1180" width="338" height="140" as="geometry" />
        </mxCell>
        <mxCell id="bJXX9XfOQg-0xpeQix21-44" value="&lt;font style=&quot;font-size: 36px;&quot;&gt;&lt;b&gt;Telemedicine System&lt;/b&gt;&lt;/font&gt;" style="text;html=1;align=center;verticalAlign=middle;whiteSpace=wrap;rounded=0;" vertex="1" parent="1">
          <mxGeometry x="1673.64" y="-140" width="110" height="30" as="geometry" />
        </mxCell>
        <mxCell id="OUAc2ZFwQFUKlX4Ms-oV-3" value="" style="group" connectable="0" vertex="1" parent="1">
          <mxGeometry x="1624.51" y="1002" width="220" height="220" as="geometry" />
        </mxCell>
        <mxCell id="OUAc2ZFwQFUKlX4Ms-oV-4" value="" style="ellipse;whiteSpace=wrap;html=1;aspect=fixed;" vertex="1" parent="OUAc2ZFwQFUKlX4Ms-oV-3">
          <mxGeometry width="220" height="220" as="geometry" />
        </mxCell>
        <mxCell id="OUAc2ZFwQFUKlX4Ms-oV-5" value="&lt;span style=&quot;color: rgb(38, 38, 38); font-family: -apple-system, BlinkMacSystemFont, &amp;quot;Segoe UI&amp;quot;, Helvetica, Arial, sans-serif, &amp;quot;Apple Color Emoji&amp;quot;, &amp;quot;Segoe UI Emoji&amp;quot;; font-size: 20px; font-weight: 600; text-align: start; background-color: rgb(255, 255, 255);&quot;&gt;Prescription &amp;amp; Pharmacy&lt;/span&gt;" style="text;html=1;align=center;verticalAlign=middle;whiteSpace=wrap;rounded=0;" vertex="1" parent="OUAc2ZFwQFUKlX4Ms-oV-3">
          <mxGeometry x="11.379310344827585" y="75.86206896551724" width="197.24137931034483" height="68.27586206896551" as="geometry" />
        </mxCell>
        <mxCell id="OUAc2ZFwQFUKlX4Ms-oV-6" value="" style="group" connectable="0" vertex="1" parent="1">
          <mxGeometry x="1623.64" y="1207" width="220" height="220" as="geometry" />
        </mxCell>
        <mxCell id="OUAc2ZFwQFUKlX4Ms-oV-7" value="" style="ellipse;whiteSpace=wrap;html=1;aspect=fixed;" vertex="1" parent="OUAc2ZFwQFUKlX4Ms-oV-6">
          <mxGeometry y="16" width="220" height="220" as="geometry" />
        </mxCell>
        <mxCell id="OUAc2ZFwQFUKlX4Ms-oV-8" value="&lt;span style=&quot;color: rgb(38, 38, 38); font-family: -apple-system, BlinkMacSystemFont, &amp;quot;Segoe UI&amp;quot;, Helvetica, Arial, sans-serif, &amp;quot;Apple Color Emoji&amp;quot;, &amp;quot;Segoe UI Emoji&amp;quot;; font-size: 20px; font-weight: 600; text-align: start; background-color: rgb(255, 255, 255);&quot;&gt;Insurance&lt;/span&gt;" style="text;html=1;align=center;verticalAlign=middle;whiteSpace=wrap;rounded=0;" vertex="1" parent="OUAc2ZFwQFUKlX4Ms-oV-6">
          <mxGeometry x="11.379310344827585" y="75.86206896551724" width="197.24137931034483" height="68.27586206896551" as="geometry" />
        </mxCell>
        <mxCell id="OUAc2ZFwQFUKlX4Ms-oV-15" value="" style="endArrow=classic;html=1;rounded=0;entryX=0.004;entryY=0.068;entryDx=0;entryDy=0;entryPerimeter=0;exitX=1;exitY=0.25;exitDx=0;exitDy=0;" edge="1" parent="1" source="bJXX9XfOQg-0xpeQix21-25" target="bJXX9XfOQg-0xpeQix21-1">
          <mxGeometry width="50" height="50" relative="1" as="geometry">
            <mxPoint x="1090" y="-39" as="sourcePoint" />
            <mxPoint x="1710" y="460" as="targetPoint" />
          </mxGeometry>
        </mxCell>
        <mxCell id="OUAc2ZFwQFUKlX4Ms-oV-16" value="" style="endArrow=classic;html=1;rounded=0;exitX=0.004;exitY=0.09;exitDx=0;exitDy=0;exitPerimeter=0;entryX=1;entryY=0.5;entryDx=0;entryDy=0;" edge="1" parent="1" source="bJXX9XfOQg-0xpeQix21-1" target="bJXX9XfOQg-0xpeQix21-25">
          <mxGeometry width="50" height="50" relative="1" as="geometry">
            <mxPoint x="1660" y="510" as="sourcePoint" />
            <mxPoint x="1105" y="-32" as="targetPoint" />
          </mxGeometry>
        </mxCell>
        <mxCell id="OUAc2ZFwQFUKlX4Ms-oV-17" value="&lt;font style=&quot;font-size: 24px;&quot;&gt;اطلاعات بیمار&lt;/font&gt;" style="text;html=1;align=center;verticalAlign=middle;whiteSpace=wrap;rounded=0;" vertex="1" parent="1">
          <mxGeometry x="1290" y="-110" width="160" height="30" as="geometry" />
        </mxCell>
        <mxCell id="OUAc2ZFwQFUKlX4Ms-oV-18" value="&lt;font style=&quot;font-size: 24px;&quot;&gt;تأیید ثبت‌نام، پروفایل بیمار&lt;/font&gt;" style="text;html=1;align=center;verticalAlign=middle;whiteSpace=wrap;rounded=0;" vertex="1" parent="1">
          <mxGeometry x="1180" y="-30" width="290" height="30" as="geometry" />
        </mxCell>
        <mxCell id="OUAc2ZFwQFUKlX4Ms-oV-19" value="&lt;font style=&quot;font-size: 24px;&quot;&gt;اطلاعات پزشک&lt;/font&gt;" style="text;html=1;align=center;verticalAlign=middle;whiteSpace=wrap;rounded=0;rotation=0;" vertex="1" parent="1">
          <mxGeometry x="2025" y="-110" width="160" height="60" as="geometry" />
        </mxCell>
        <mxCell id="OUAc2ZFwQFUKlX4Ms-oV-20" value="" style="endArrow=classic;html=1;rounded=0;exitX=-0.006;exitY=0.676;exitDx=0;exitDy=0;entryX=0.999;entryY=0.079;entryDx=0;entryDy=0;entryPerimeter=0;exitPerimeter=0;" edge="1" parent="1" source="bJXX9XfOQg-0xpeQix21-23" target="bJXX9XfOQg-0xpeQix21-1">
          <mxGeometry width="50" height="50" relative="1" as="geometry">
            <mxPoint x="2360" y="-70" as="sourcePoint" />
            <mxPoint x="1880" y="-90" as="targetPoint" />
          </mxGeometry>
        </mxCell>
        <mxCell id="OUAc2ZFwQFUKlX4Ms-oV-21" value="" style="endArrow=classic;html=1;rounded=0;exitX=1.004;exitY=0.09;exitDx=0;exitDy=0;exitPerimeter=0;entryX=0;entryY=0.75;entryDx=0;entryDy=0;" edge="1" parent="1" source="bJXX9XfOQg-0xpeQix21-1" target="bJXX9XfOQg-0xpeQix21-23">
          <mxGeometry width="50" height="50" relative="1" as="geometry">
            <mxPoint x="1690" y="150" as="sourcePoint" />
            <mxPoint x="2240" y="30" as="targetPoint" />
          </mxGeometry>
        </mxCell>
        <mxCell id="OUAc2ZFwQFUKlX4Ms-oV-22" value="&lt;font style=&quot;font-size: 24px;&quot;&gt;پروفایل پزشک، برنامه حضور پزشک&lt;/font&gt;" style="text;html=1;align=center;verticalAlign=middle;whiteSpace=wrap;rounded=0;rotation=0;" vertex="1" parent="1">
          <mxGeometry x="1935" y="-30.000000000000007" width="370" height="30" as="geometry" />
        </mxCell>
        <mxCell id="OUAc2ZFwQFUKlX4Ms-oV-23" value="" style="endArrow=classic;html=1;rounded=0;exitX=1.008;exitY=0.918;exitDx=0;exitDy=0;exitPerimeter=0;entryX=-0.007;entryY=0.244;entryDx=0;entryDy=0;entryPerimeter=0;" edge="1" parent="1" source="bJXX9XfOQg-0xpeQix21-25" target="bJXX9XfOQg-0xpeQix21-1">
          <mxGeometry width="50" height="50" relative="1" as="geometry">
            <mxPoint x="1690" y="370" as="sourcePoint" />
            <mxPoint x="1740" y="320" as="targetPoint" />
          </mxGeometry>
        </mxCell>
        <mxCell id="OUAc2ZFwQFUKlX4Ms-oV-24" value="&lt;font style=&quot;font-size: 24px;&quot;&gt;درخواست نوبت&lt;/font&gt;" style="text;html=1;align=center;verticalAlign=middle;whiteSpace=wrap;rounded=0;rotation=15;" vertex="1" parent="1">
          <mxGeometry x="1320" y="110" width="220" height="30" as="geometry" />
        </mxCell>
        <mxCell id="OUAc2ZFwQFUKlX4Ms-oV-25" value="" style="endArrow=classic;html=1;rounded=0;exitX=0;exitY=1;exitDx=0;exitDy=0;entryX=1.011;entryY=0.218;entryDx=0;entryDy=0;entryPerimeter=0;" edge="1" parent="1" source="bJXX9XfOQg-0xpeQix21-23" target="bJXX9XfOQg-0xpeQix21-1">
          <mxGeometry width="50" height="50" relative="1" as="geometry">
            <mxPoint x="1690" y="400" as="sourcePoint" />
            <mxPoint x="1890" y="534" as="targetPoint" />
          </mxGeometry>
        </mxCell>
        <mxCell id="OUAc2ZFwQFUKlX4Ms-oV-26" value="&lt;font style=&quot;font-size: 24px;&quot;&gt;تأیید یا زمان‌بندی پزشک&lt;/font&gt;" style="text;html=1;align=center;verticalAlign=middle;whiteSpace=wrap;rounded=0;rotation=-15;" vertex="1" parent="1">
          <mxGeometry x="1901" y="90" width="280" height="30" as="geometry" />
        </mxCell>
        <mxCell id="OUAc2ZFwQFUKlX4Ms-oV-27" value="&lt;font style=&quot;font-size: 24px;&quot;&gt;تأیید نوبت، لینک جلسه ویدئویی&lt;/font&gt;" style="text;html=1;align=center;verticalAlign=middle;whiteSpace=wrap;rounded=0;rotation=25;" vertex="1" parent="1">
          <mxGeometry x="1200" y="180" width="360" height="30" as="geometry" />
        </mxCell>
        <mxCell id="OUAc2ZFwQFUKlX4Ms-oV-28" value="" style="endArrow=classic;html=1;rounded=0;exitX=-0.003;exitY=0.268;exitDx=0;exitDy=0;exitPerimeter=0;entryX=0.978;entryY=0.985;entryDx=0;entryDy=0;entryPerimeter=0;" edge="1" parent="1" source="bJXX9XfOQg-0xpeQix21-1" target="bJXX9XfOQg-0xpeQix21-25">
          <mxGeometry width="50" height="50" relative="1" as="geometry">
            <mxPoint x="1690" y="400" as="sourcePoint" />
            <mxPoint x="1740" y="350" as="targetPoint" />
          </mxGeometry>
        </mxCell>
        <mxCell id="OUAc2ZFwQFUKlX4Ms-oV-30" value="" style="endArrow=classic;html=1;rounded=0;exitX=1;exitY=0.25;exitDx=0;exitDy=0;entryX=0.053;entryY=1.018;entryDx=0;entryDy=0;entryPerimeter=0;" edge="1" parent="1" source="bJXX9XfOQg-0xpeQix21-1" target="bJXX9XfOQg-0xpeQix21-23">
          <mxGeometry width="50" height="50" relative="1" as="geometry">
            <mxPoint x="1690" y="400" as="sourcePoint" />
            <mxPoint x="1740" y="350" as="targetPoint" />
          </mxGeometry>
        </mxCell>
        <mxCell id="OUAc2ZFwQFUKlX4Ms-oV-31" value="&lt;span style=&quot;color: rgb(0, 0, 0); font-family: Helvetica; font-size: 24px; font-style: normal; font-variant-ligatures: normal; font-variant-caps: normal; font-weight: 400; letter-spacing: normal; orphans: 2; text-align: center; text-indent: 0px; text-transform: none; widows: 2; word-spacing: 0px; -webkit-text-stroke-width: 0px; white-space: normal; background-color: rgb(236, 236, 236); text-decoration-thickness: initial; text-decoration-style: initial; text-decoration-color: initial; display: inline !important; float: none;&quot;&gt;لینک جلسه ویدئویی&lt;/span&gt;" style="text;whiteSpace=wrap;html=1;rotation=-25;" vertex="1" parent="1">
          <mxGeometry x="2005.17" y="177.04000000000005" width="199.65" height="32.96" as="geometry" />
        </mxCell>
        <mxCell id="OUAc2ZFwQFUKlX4Ms-oV-32" value="" style="endArrow=classic;html=1;rounded=0;entryX=0.009;entryY=0.527;entryDx=0;entryDy=0;entryPerimeter=0;exitX=0.778;exitY=1.018;exitDx=0;exitDy=0;exitPerimeter=0;" edge="1" parent="1" source="bJXX9XfOQg-0xpeQix21-25" target="bJXX9XfOQg-0xpeQix21-1">
          <mxGeometry width="50" height="50" relative="1" as="geometry">
            <mxPoint x="1030" y="50" as="sourcePoint" />
            <mxPoint x="1400" y="270" as="targetPoint" />
          </mxGeometry>
        </mxCell>
        <mxCell id="OUAc2ZFwQFUKlX4Ms-oV-33" value="&lt;font style=&quot;font-size: 24px;&quot;&gt;درخواست پرداخت ، اطلاعات فاکتور&lt;/font&gt;" style="text;html=1;align=center;verticalAlign=middle;whiteSpace=wrap;rounded=0;rotation=45;" vertex="1" parent="1">
          <mxGeometry x="1207.58" y="401.72" width="368.28" height="30" as="geometry" />
        </mxCell>
        <mxCell id="OUAc2ZFwQFUKlX4Ms-oV-34" value="" style="endArrow=classic;html=1;rounded=0;entryX=0.5;entryY=1;entryDx=0;entryDy=0;" edge="1" parent="1" source="bJXX9XfOQg-0xpeQix21-29" target="bJXX9XfOQg-0xpeQix21-25">
          <mxGeometry width="50" height="50" relative="1" as="geometry">
            <mxPoint x="1090" y="470" as="sourcePoint" />
            <mxPoint x="1140" y="420" as="targetPoint" />
          </mxGeometry>
        </mxCell>
        <mxCell id="OUAc2ZFwQFUKlX4Ms-oV-35" value="&lt;font style=&quot;font-size: 24px;&quot;&gt;رسید پرداخت به بیمار&lt;/font&gt;" style="text;html=1;align=center;verticalAlign=middle;whiteSpace=wrap;rounded=0;rotation=90;" vertex="1" parent="1">
          <mxGeometry x="790" y="199.51999999999998" width="230" height="30" as="geometry" />
        </mxCell>
        <mxCell id="OUAc2ZFwQFUKlX4Ms-oV-36" value="" style="endArrow=classic;html=1;rounded=0;exitX=-0.007;exitY=0.563;exitDx=0;exitDy=0;exitPerimeter=0;entryX=1.012;entryY=0.412;entryDx=0;entryDy=0;entryPerimeter=0;" edge="1" parent="1" source="bJXX9XfOQg-0xpeQix21-1" target="bJXX9XfOQg-0xpeQix21-28">
          <mxGeometry width="50" height="50" relative="1" as="geometry">
            <mxPoint x="1380" y="510" as="sourcePoint" />
            <mxPoint x="1430" y="460" as="targetPoint" />
          </mxGeometry>
        </mxCell>
        <mxCell id="OUAc2ZFwQFUKlX4Ms-oV-37" value="&lt;font style=&quot;font-size: 24px;&quot;&gt;تأییدیه&lt;/font&gt;" style="text;html=1;align=center;verticalAlign=middle;whiteSpace=wrap;rounded=0;rotation=0;" vertex="1" parent="1">
          <mxGeometry x="1420" y="670" width="80" height="50" as="geometry" />
        </mxCell>
        <mxCell id="OUAc2ZFwQFUKlX4Ms-oV-38" value="" style="endArrow=classic;html=1;rounded=0;exitX=0.528;exitY=-0.002;exitDx=0;exitDy=0;exitPerimeter=0;" edge="1" parent="1" source="bJXX9XfOQg-0xpeQix21-28" target="bJXX9XfOQg-0xpeQix21-29">
          <mxGeometry width="50" height="50" relative="1" as="geometry">
            <mxPoint x="1410" y="555" as="sourcePoint" />
            <mxPoint x="1460" y="505" as="targetPoint" />
          </mxGeometry>
        </mxCell>
        <mxCell id="OUAc2ZFwQFUKlX4Ms-oV-39" value="&lt;font style=&quot;font-size: 24px;&quot;&gt;تأییدیه&lt;/font&gt;" style="text;html=1;align=center;verticalAlign=middle;whiteSpace=wrap;rounded=0;rotation=-90;" vertex="1" parent="1">
          <mxGeometry x="880" y="605" width="80" height="20.5" as="geometry" />
        </mxCell>
        <mxCell id="OUAc2ZFwQFUKlX4Ms-oV-40" value="" style="endArrow=classic;html=1;rounded=0;exitX=1.002;exitY=0.68;exitDx=0;exitDy=0;exitPerimeter=0;entryX=0.007;entryY=0.579;entryDx=0;entryDy=0;entryPerimeter=0;" edge="1" parent="1" source="bJXX9XfOQg-0xpeQix21-28" target="bJXX9XfOQg-0xpeQix21-1">
          <mxGeometry width="50" height="50" relative="1" as="geometry">
            <mxPoint x="1380" y="730" as="sourcePoint" />
            <mxPoint x="1430" y="680" as="targetPoint" />
          </mxGeometry>
        </mxCell>
        <mxCell id="OUAc2ZFwQFUKlX4Ms-oV-42" value="&lt;font style=&quot;font-size: 24px;&quot;&gt;اطلاعات تراکنش و پوشش بیمه‌ای&lt;/font&gt;" style="text;html=1;align=center;verticalAlign=middle;resizable=0;points=[];autosize=1;strokeColor=none;fillColor=none;rotation=0;" vertex="1" parent="1">
          <mxGeometry x="1220" y="775" width="340" height="40" as="geometry" />
        </mxCell>
        <mxCell id="OUAc2ZFwQFUKlX4Ms-oV-43" value="" style="endArrow=classic;html=1;rounded=0;exitX=0.25;exitY=1;exitDx=0;exitDy=0;entryX=1.011;entryY=0.36;entryDx=0;entryDy=0;entryPerimeter=0;" edge="1" parent="1" source="bJXX9XfOQg-0xpeQix21-23" target="bJXX9XfOQg-0xpeQix21-1">
          <mxGeometry width="50" height="50" relative="1" as="geometry">
            <mxPoint x="1960" y="310" as="sourcePoint" />
            <mxPoint x="1930" y="650" as="targetPoint" />
          </mxGeometry>
        </mxCell>
        <mxCell id="OUAc2ZFwQFUKlX4Ms-oV-44" value="&lt;font style=&quot;font-size: 24px;&quot;&gt;ارسال نسخه&lt;/font&gt;" style="text;html=1;align=center;verticalAlign=middle;whiteSpace=wrap;rounded=0;rotation=-30;" vertex="1" parent="1">
          <mxGeometry x="2055" y="238.00000000000003" width="145" height="30" as="geometry" />
        </mxCell>
        <mxCell id="OUAc2ZFwQFUKlX4Ms-oV-45" value="" style="endArrow=classic;html=1;rounded=0;exitX=-0.01;exitY=0.789;exitDx=0;exitDy=0;exitPerimeter=0;entryX=1;entryY=0.25;entryDx=0;entryDy=0;" edge="1" parent="1" source="bJXX9XfOQg-0xpeQix21-1" target="bJXX9XfOQg-0xpeQix21-27">
          <mxGeometry width="50" height="50" relative="1" as="geometry">
            <mxPoint x="1940" y="930" as="sourcePoint" />
            <mxPoint x="1990" y="880" as="targetPoint" />
          </mxGeometry>
        </mxCell>
        <mxCell id="OUAc2ZFwQFUKlX4Ms-oV-46" value="" style="endArrow=classic;html=1;rounded=0;entryX=-0.008;entryY=0.378;entryDx=0;entryDy=0;entryPerimeter=0;exitX=1;exitY=0.5;exitDx=0;exitDy=0;" edge="1" parent="1" source="bJXX9XfOQg-0xpeQix21-27" target="bJXX9XfOQg-0xpeQix21-45">
          <mxGeometry width="50" height="50" relative="1" as="geometry">
            <mxPoint x="1130" y="1153" as="sourcePoint" />
            <mxPoint x="1490" y="1736" as="targetPoint" />
          </mxGeometry>
        </mxCell>
        <mxCell id="OUAc2ZFwQFUKlX4Ms-oV-47" value="" style="endArrow=classic;html=1;rounded=0;exitX=0;exitY=0.25;exitDx=0;exitDy=0;entryX=0.711;entryY=1.004;entryDx=0;entryDy=0;entryPerimeter=0;" edge="1" parent="1" source="bJXX9XfOQg-0xpeQix21-45" target="bJXX9XfOQg-0xpeQix21-25">
          <mxGeometry width="50" height="50" relative="1" as="geometry">
            <mxPoint x="369.2000000000003" y="1452.94" as="sourcePoint" />
            <mxPoint x="1980" y="750" as="targetPoint" />
          </mxGeometry>
        </mxCell>
        <mxCell id="OUAc2ZFwQFUKlX4Ms-oV-48" value="&lt;font style=&quot;font-size: 24px;&quot;&gt;ارسال نسخه به داروخانه&lt;/font&gt;" style="text;html=1;align=center;verticalAlign=middle;whiteSpace=wrap;rounded=0;rotation=0;" vertex="1" parent="1">
          <mxGeometry x="1315.64" y="1040" width="260" height="30" as="geometry" />
        </mxCell>
        <mxCell id="OUAc2ZFwQFUKlX4Ms-oV-49" value="&lt;font style=&quot;font-size: 24px;&quot;&gt;ارسال دارو به قسمت پخش دارو&lt;/font&gt;" style="text;html=1;align=center;verticalAlign=middle;whiteSpace=wrap;rounded=0;rotation=50;" vertex="1" parent="1">
          <mxGeometry x="1190" y="1520" width="340" height="60" as="geometry" />
        </mxCell>
        <mxCell id="OUAc2ZFwQFUKlX4Ms-oV-50" value="&lt;font style=&quot;font-size: 24px;&quot;&gt;داروی تحویل داده شده به بیمار&lt;/font&gt;" style="text;html=1;align=center;verticalAlign=middle;whiteSpace=wrap;rounded=0;rotation=73;" vertex="1" parent="1">
          <mxGeometry x="1290" y="1340" width="370" height="60" as="geometry" />
        </mxCell>
        <mxCell id="OUAc2ZFwQFUKlX4Ms-oV-51" value="" style="endArrow=classic;html=1;rounded=0;entryX=0.992;entryY=0.401;entryDx=0;entryDy=0;entryPerimeter=0;exitX=0;exitY=0.5;exitDx=0;exitDy=0;" edge="1" parent="1" source="bJXX9XfOQg-0xpeQix21-26" target="bJXX9XfOQg-0xpeQix21-1">
          <mxGeometry width="50" height="50" relative="1" as="geometry">
            <mxPoint x="1660" y="1200" as="sourcePoint" />
            <mxPoint x="1710" y="1150" as="targetPoint" />
          </mxGeometry>
        </mxCell>
        <mxCell id="OUAc2ZFwQFUKlX4Ms-oV-52" value="&lt;font style=&quot;font-size: 24px;&quot;&gt;ارسال گزارش وضعیت بیمار&lt;/font&gt;" style="text;html=1;align=center;verticalAlign=middle;whiteSpace=wrap;rounded=0;rotation=0;" vertex="1" parent="1">
          <mxGeometry x="1982.5" y="420" width="300" height="40" as="geometry" />
        </mxCell>
        <mxCell id="_bDziYAg8G3RiM6hPavM-5" value="" style="group" connectable="0" vertex="1" parent="1">
          <mxGeometry x="1559.9999999999998" y="1630" width="320" height="290" as="geometry" />
        </mxCell>
        <mxCell id="bJXX9XfOQg-0xpeQix21-45" value="" style="rounded=0;whiteSpace=wrap;html=1;" vertex="1" parent="_bDziYAg8G3RiM6hPavM-5">
          <mxGeometry width="320" height="290" as="geometry" />
        </mxCell>
        <mxCell id="OUAc2ZFwQFUKlX4Ms-oV-12" value="&lt;div style=&quot;&quot;&gt;&lt;span style=&quot;font-size: 36px; background-color: transparent; color: light-dark(rgb(0, 0, 0), rgb(255, 255, 255));&quot;&gt;Medicine Delivery Service&lt;/span&gt;&lt;/div&gt;" style="text;whiteSpace=wrap;html=1;align=center;" vertex="1" parent="_bDziYAg8G3RiM6hPavM-5">
          <mxGeometry x="72.81000000000017" y="54" width="180" height="70" as="geometry" />
        </mxCell>
        <mxCell id="_bDziYAg8G3RiM6hPavM-11" value="" style="endArrow=classic;html=1;rounded=0;exitX=1;exitY=0.437;exitDx=0;exitDy=0;exitPerimeter=0;entryX=0;entryY=0.75;entryDx=0;entryDy=0;" edge="1" parent="1" source="bJXX9XfOQg-0xpeQix21-1" target="bJXX9XfOQg-0xpeQix21-26">
          <mxGeometry width="50" height="50" relative="1" as="geometry">
            <mxPoint x="2140" y="840" as="sourcePoint" />
            <mxPoint x="2190" y="790" as="targetPoint" />
          </mxGeometry>
        </mxCell>
        <mxCell id="_bDziYAg8G3RiM6hPavM-12" value="&lt;font style=&quot;font-size: 24px;&quot;&gt;دریافت دستورات/برنامه مراقبتی&lt;/font&gt;" style="text;html=1;align=center;verticalAlign=middle;whiteSpace=wrap;rounded=0;rotation=0;" vertex="1" parent="1">
          <mxGeometry x="1995" y="535" width="310" height="30" as="geometry" />
        </mxCell>
        <mxCell id="_bDziYAg8G3RiM6hPavM-13" value="" style="endArrow=classic;html=1;rounded=0;exitX=0;exitY=0.25;exitDx=0;exitDy=0;entryX=0.991;entryY=0.626;entryDx=0;entryDy=0;entryPerimeter=0;" edge="1" parent="1" source="bJXX9XfOQg-0xpeQix21-24" target="bJXX9XfOQg-0xpeQix21-1">
          <mxGeometry width="50" height="50" relative="1" as="geometry">
            <mxPoint x="2210" y="1010" as="sourcePoint" />
            <mxPoint x="2260" y="960" as="targetPoint" />
          </mxGeometry>
        </mxCell>
        <mxCell id="_bDziYAg8G3RiM6hPavM-14" value="" style="endArrow=classic;html=1;rounded=0;exitX=1.01;exitY=0.658;exitDx=0;exitDy=0;exitPerimeter=0;entryX=0.008;entryY=0.644;entryDx=0;entryDy=0;entryPerimeter=0;" edge="1" parent="1" source="bJXX9XfOQg-0xpeQix21-1" target="bJXX9XfOQg-0xpeQix21-24">
          <mxGeometry width="50" height="50" relative="1" as="geometry">
            <mxPoint x="2210" y="1010" as="sourcePoint" />
            <mxPoint x="2260" y="960" as="targetPoint" />
          </mxGeometry>
        </mxCell>
        <mxCell id="_bDziYAg8G3RiM6hPavM-15" value="&lt;font style=&quot;font-size: 24px;&quot;&gt;ارسال اطلاعات پرونده پزشکی و بیماران&lt;/font&gt;" style="text;html=1;align=center;verticalAlign=middle;whiteSpace=wrap;rounded=0;" vertex="1" parent="1">
          <mxGeometry x="1982.5" y="784" width="385" height="30" as="geometry" />
        </mxCell>
        <mxCell id="_bDziYAg8G3RiM6hPavM-16" value="&lt;font style=&quot;font-size: 24px;&quot;&gt;دریافت گزارش‌های عملکرد و نتایج&lt;/font&gt;" style="text;html=1;align=center;verticalAlign=middle;whiteSpace=wrap;rounded=0;" vertex="1" parent="1">
          <mxGeometry x="2001" y="890" width="360" height="30" as="geometry" />
        </mxCell>
        <mxCell id="_bDziYAg8G3RiM6hPavM-17" value="" style="endArrow=classic;html=1;rounded=0;entryX=-0.007;entryY=0.306;entryDx=0;entryDy=0;entryPerimeter=0;exitX=0.997;exitY=0.871;exitDx=0;exitDy=0;exitPerimeter=0;" edge="1" parent="1" source="bJXX9XfOQg-0xpeQix21-1" target="bJXX9XfOQg-0xpeQix21-31">
          <mxGeometry width="50" height="50" relative="1" as="geometry">
            <mxPoint x="1892" y="1220" as="sourcePoint" />
            <mxPoint x="2260" y="1010" as="targetPoint" />
          </mxGeometry>
        </mxCell>
        <mxCell id="_bDziYAg8G3RiM6hPavM-18" value="" style="endArrow=classic;html=1;rounded=0;entryX=1;entryY=0.904;entryDx=0;entryDy=0;entryPerimeter=0;exitX=-0.01;exitY=0.652;exitDx=0;exitDy=0;exitPerimeter=0;" edge="1" parent="1" source="bJXX9XfOQg-0xpeQix21-31" target="bJXX9XfOQg-0xpeQix21-1">
          <mxGeometry width="50" height="50" relative="1" as="geometry">
            <mxPoint x="2210" y="1340" as="sourcePoint" />
            <mxPoint x="2260" y="1290" as="targetPoint" />
          </mxGeometry>
        </mxCell>
        <mxCell id="_bDziYAg8G3RiM6hPavM-19" value="&lt;font style=&quot;font-size: 24px;&quot;&gt;مدیریت کاربران (ایجاد، حذف، تغییر نقش‌ها)&lt;/font&gt;" style="text;html=1;align=center;verticalAlign=middle;whiteSpace=wrap;rounded=0;" vertex="1" parent="1">
          <mxGeometry x="1955" y="1290" width="440" height="30" as="geometry" />
        </mxCell>
        <mxCell id="_bDziYAg8G3RiM6hPavM-20" value="&lt;font style=&quot;font-size: 24px;&quot;&gt;دریافت گزارشات مالی و آماری&lt;/font&gt;" style="text;html=1;align=center;verticalAlign=middle;whiteSpace=wrap;rounded=0;" vertex="1" parent="1">
          <mxGeometry x="1961" y="1180" width="440" height="30" as="geometry" />
        </mxCell>
        <mxCell id="jCPE2xNXIkrLJKkH9MkI-6" value="Appointment Database" style="group" connectable="0" vertex="1" parent="1">
          <mxGeometry x="1040" y="-460" width="330" height="90" as="geometry" />
        </mxCell>
        <mxCell id="jCPE2xNXIkrLJKkH9MkI-3" value="" style="html=1;dashed=0;whiteSpace=wrap;shape=mxgraph.dfd.dataStoreID;align=left;spacingLeft=3;points=[[0,0],[0.5,0],[1,0],[0,0.5],[1,0.5],[0,1],[0.5,1],[1,1]];" vertex="1" parent="jCPE2xNXIkrLJKkH9MkI-6">
          <mxGeometry width="330" height="90" as="geometry" />
        </mxCell>
        <mxCell id="jCPE2xNXIkrLJKkH9MkI-4" value="&lt;font style=&quot;font-size: 24px;&quot;&gt;Patient Database&lt;/font&gt;" style="text;html=1;align=center;verticalAlign=middle;whiteSpace=wrap;rounded=0;" vertex="1" parent="jCPE2xNXIkrLJKkH9MkI-6">
          <mxGeometry x="52.5" y="30" width="240" height="30" as="geometry" />
        </mxCell>
        <mxCell id="jCPE2xNXIkrLJKkH9MkI-5" value="&lt;font style=&quot;font-size: 24px;&quot;&gt;D1&lt;/font&gt;" style="text;html=1;align=center;verticalAlign=middle;whiteSpace=wrap;rounded=0;rotation=-90;" vertex="1" parent="jCPE2xNXIkrLJKkH9MkI-6">
          <mxGeometry x="1.5" y="36.5" width="30" height="20" as="geometry" />
        </mxCell>
        <mxCell id="jCPE2xNXIkrLJKkH9MkI-7" value="" style="group" connectable="0" vertex="1" parent="1">
          <mxGeometry x="2670" y="-870" width="330" height="90" as="geometry" />
        </mxCell>
        <mxCell id="jCPE2xNXIkrLJKkH9MkI-8" value="" style="html=1;dashed=0;whiteSpace=wrap;shape=mxgraph.dfd.dataStoreID;align=left;spacingLeft=3;points=[[0,0],[0.5,0],[1,0],[0,0.5],[1,0.5],[0,1],[0.5,1],[1,1]];" vertex="1" parent="jCPE2xNXIkrLJKkH9MkI-7">
          <mxGeometry width="330" height="90" as="geometry" />
        </mxCell>
        <mxCell id="jCPE2xNXIkrLJKkH9MkI-9" value="&lt;font style=&quot;font-size: 24px;&quot;&gt;Doctor Database&lt;/font&gt;" style="text;html=1;align=center;verticalAlign=middle;whiteSpace=wrap;rounded=0;" vertex="1" parent="jCPE2xNXIkrLJKkH9MkI-7">
          <mxGeometry x="52.5" y="30" width="240" height="30" as="geometry" />
        </mxCell>
        <mxCell id="jCPE2xNXIkrLJKkH9MkI-10" value="&lt;font style=&quot;font-size: 24px;&quot;&gt;D2&lt;/font&gt;" style="text;html=1;align=center;verticalAlign=middle;whiteSpace=wrap;rounded=0;rotation=-90;" vertex="1" parent="jCPE2xNXIkrLJKkH9MkI-7">
          <mxGeometry x="1.5" y="36.5" width="30" height="20" as="geometry" />
        </mxCell>
        <mxCell id="jCPE2xNXIkrLJKkH9MkI-13" value="" style="endArrow=classic;html=1;rounded=0;exitX=0.5;exitY=0;exitDx=0;exitDy=0;entryX=0.368;entryY=1.035;entryDx=0;entryDy=0;entryPerimeter=0;" edge="1" parent="1" source="bJXX9XfOQg-0xpeQix21-25" target="jCPE2xNXIkrLJKkH9MkI-3">
          <mxGeometry width="50" height="50" relative="1" as="geometry">
            <mxPoint x="1060" y="-40" as="sourcePoint" />
            <mxPoint x="1130" y="-320" as="targetPoint" />
          </mxGeometry>
        </mxCell>
        <mxCell id="jCPE2xNXIkrLJKkH9MkI-14" value="&lt;font style=&quot;font-size: 24px;&quot;&gt;&amp;nbsp;ثبت نام، ویرلیش پروفایل&lt;/font&gt;" style="text;html=1;align=center;verticalAlign=middle;whiteSpace=wrap;rounded=0;rotation=-45;" vertex="1" parent="1">
          <mxGeometry x="910" y="-260" width="213.5" height="20.75" as="geometry" />
        </mxCell>
        <mxCell id="jCPE2xNXIkrLJKkH9MkI-15" value="" style="endArrow=classic;html=1;rounded=0;entryX=0;entryY=0.5;entryDx=0;entryDy=0;" edge="1" parent="1" source="jCPE2xNXIkrLJKkH9MkI-3" target="bJXX9XfOQg-0xpeQix21-23">
          <mxGeometry width="50" height="50" relative="1" as="geometry">
            <mxPoint x="1410" y="-40" as="sourcePoint" />
            <mxPoint x="2560" y="-120" as="targetPoint" />
          </mxGeometry>
        </mxCell>
        <mxCell id="jCPE2xNXIkrLJKkH9MkI-17" value="&lt;font style=&quot;font-size: 24px;&quot;&gt;نمایش سوابق بیمار در ویزیت&lt;/font&gt;" style="text;html=1;align=center;verticalAlign=middle;whiteSpace=wrap;rounded=0;rotation=15;" vertex="1" parent="1">
          <mxGeometry x="1410" y="-370" width="310" height="30" as="geometry" />
        </mxCell>
        <mxCell id="jCPE2xNXIkrLJKkH9MkI-20" value="" style="endArrow=classic;html=1;rounded=0;exitX=1;exitY=0;exitDx=0;exitDy=0;entryX=1;entryY=1;entryDx=0;entryDy=0;" edge="1" parent="1" source="bJXX9XfOQg-0xpeQix21-31" target="jCPE2xNXIkrLJKkH9MkI-8">
          <mxGeometry width="50" height="50" relative="1" as="geometry">
            <mxPoint x="3000" y="640" as="sourcePoint" />
            <mxPoint x="3050" y="590" as="targetPoint" />
          </mxGeometry>
        </mxCell>
        <mxCell id="jCPE2xNXIkrLJKkH9MkI-21" value="" style="endArrow=classic;html=1;rounded=0;exitX=0;exitY=0.5;exitDx=0;exitDy=0;entryX=0.864;entryY=-0.012;entryDx=0;entryDy=0;entryPerimeter=0;" edge="1" parent="1" source="jCPE2xNXIkrLJKkH9MkI-8" target="bJXX9XfOQg-0xpeQix21-25">
          <mxGeometry width="50" height="50" relative="1" as="geometry">
            <mxPoint x="2090" y="530" as="sourcePoint" />
            <mxPoint x="2030" y="-540" as="targetPoint" />
          </mxGeometry>
        </mxCell>
        <mxCell id="jCPE2xNXIkrLJKkH9MkI-23" value="&lt;font style=&quot;font-size: 24px;&quot;&gt;ثبت یا تایید پزشک&lt;/font&gt;" style="text;html=1;align=center;verticalAlign=middle;whiteSpace=wrap;rounded=0;rotation=-90;" vertex="1" parent="1">
          <mxGeometry x="2910" y="-610" width="220" height="30" as="geometry" />
        </mxCell>
        <mxCell id="jCPE2xNXIkrLJKkH9MkI-24" value="&lt;font style=&quot;font-size: 24px;&quot;&gt;جستجوی پزشک، مشاهده پروفایل&lt;/font&gt;" style="text;html=1;align=center;verticalAlign=middle;whiteSpace=wrap;rounded=0;rotation=-15;" vertex="1" parent="1">
          <mxGeometry x="2230" y="-780" width="352.5" height="30" as="geometry" />
        </mxCell>
        <mxCell id="jCPE2xNXIkrLJKkH9MkI-25" style="edgeStyle=orthogonalEdgeStyle;rounded=0;orthogonalLoop=1;jettySize=auto;html=1;exitX=0.75;exitY=1;exitDx=0;exitDy=0;entryX=0.83;entryY=0.783;entryDx=0;entryDy=0;entryPerimeter=0;" edge="1" parent="1" source="jCPE2xNXIkrLJKkH9MkI-23" target="jCPE2xNXIkrLJKkH9MkI-23">
          <mxGeometry relative="1" as="geometry" />
        </mxCell>
        <mxCell id="jCPE2xNXIkrLJKkH9MkI-29" value="" style="group" connectable="0" vertex="1" parent="1">
          <mxGeometry x="2290" y="1500" width="330" height="90" as="geometry" />
        </mxCell>
        <mxCell id="jCPE2xNXIkrLJKkH9MkI-30" value="" style="html=1;dashed=0;whiteSpace=wrap;shape=mxgraph.dfd.dataStoreID;align=left;spacingLeft=3;points=[[0,0],[0.5,0],[1,0],[0,0.5],[1,0.5],[0,1],[0.5,1],[1,1]];" vertex="1" parent="jCPE2xNXIkrLJKkH9MkI-29">
          <mxGeometry width="330" height="90" as="geometry" />
        </mxCell>
        <mxCell id="jCPE2xNXIkrLJKkH9MkI-31" value="&lt;font style=&quot;font-size: 24px;&quot;&gt;Specialty &amp;amp; Disease Database&lt;/font&gt;" style="text;html=1;align=center;verticalAlign=middle;whiteSpace=wrap;rounded=0;" vertex="1" parent="jCPE2xNXIkrLJKkH9MkI-29">
          <mxGeometry x="60" y="30" width="227.5" height="30" as="geometry" />
        </mxCell>
        <mxCell id="jCPE2xNXIkrLJKkH9MkI-32" value="&lt;font style=&quot;font-size: 24px;&quot;&gt;D3&lt;/font&gt;" style="text;html=1;align=center;verticalAlign=middle;whiteSpace=wrap;rounded=0;rotation=-90;" vertex="1" parent="jCPE2xNXIkrLJKkH9MkI-29">
          <mxGeometry x="1.5" y="36.5" width="30" height="20" as="geometry" />
        </mxCell>
        <mxCell id="jCPE2xNXIkrLJKkH9MkI-34" value="" style="endArrow=classic;html=1;rounded=0;exitX=0.5;exitY=1;exitDx=0;exitDy=0;entryX=1;entryY=0;entryDx=0;entryDy=0;" edge="1" parent="1" source="bJXX9XfOQg-0xpeQix21-31" target="jCPE2xNXIkrLJKkH9MkI-30">
          <mxGeometry width="50" height="50" relative="1" as="geometry">
            <mxPoint x="2230" y="1410" as="sourcePoint" />
            <mxPoint x="2280" y="1360" as="targetPoint" />
          </mxGeometry>
        </mxCell>
        <mxCell id="jCPE2xNXIkrLJKkH9MkI-35" value="" style="endArrow=classic;html=1;rounded=0;entryX=1.009;entryY=0.977;entryDx=0;entryDy=0;entryPerimeter=0;exitX=-0.001;exitY=0.237;exitDx=0;exitDy=0;exitPerimeter=0;" edge="1" parent="1" source="jCPE2xNXIkrLJKkH9MkI-30" target="bJXX9XfOQg-0xpeQix21-1">
          <mxGeometry width="50" height="50" relative="1" as="geometry">
            <mxPoint x="2150" y="1620" as="sourcePoint" />
            <mxPoint x="2020" y="1480" as="targetPoint" />
          </mxGeometry>
        </mxCell>
        <mxCell id="jCPE2xNXIkrLJKkH9MkI-36" value="&lt;font style=&quot;font-size: 24px;&quot;&gt; مدیریت تخصص‌ها و بیماری‌ها&lt;/font&gt;" style="text;html=1;align=center;verticalAlign=middle;whiteSpace=wrap;rounded=0;" vertex="1" parent="1">
          <mxGeometry x="2630" y="1390" width="201" height="30" as="geometry" />
        </mxCell>
        <mxCell id="jCPE2xNXIkrLJKkH9MkI-37" value="&lt;font style=&quot;font-size: 24px;&quot;&gt;خوانده شدن&lt;/font&gt;" style="text;html=1;align=center;verticalAlign=middle;whiteSpace=wrap;rounded=0;rotation=15;" vertex="1" parent="1">
          <mxGeometry x="2055" y="1480" width="130" height="20" as="geometry" />
        </mxCell>
        <mxCell id="jCPE2xNXIkrLJKkH9MkI-38" value="" style="group" connectable="0" vertex="1" parent="1">
          <mxGeometry x="1570" y="-610" width="330" height="90" as="geometry" />
        </mxCell>
        <mxCell id="jCPE2xNXIkrLJKkH9MkI-39" value="" style="html=1;dashed=0;whiteSpace=wrap;shape=mxgraph.dfd.dataStoreID;align=left;spacingLeft=3;points=[[0,0],[0.5,0],[1,0],[0,0.5],[1,0.5],[0,1],[0.5,1],[1,1]];" vertex="1" parent="jCPE2xNXIkrLJKkH9MkI-38">
          <mxGeometry width="330" height="90" as="geometry" />
        </mxCell>
        <mxCell id="jCPE2xNXIkrLJKkH9MkI-40" value="&lt;font style=&quot;font-size: 24px;&quot;&gt;Appointment Database&lt;/font&gt;" style="text;html=1;align=center;verticalAlign=middle;whiteSpace=wrap;rounded=0;" vertex="1" parent="jCPE2xNXIkrLJKkH9MkI-38">
          <mxGeometry x="60" y="30" width="227.5" height="30" as="geometry" />
        </mxCell>
        <mxCell id="jCPE2xNXIkrLJKkH9MkI-41" value="&lt;font style=&quot;font-size: 24px;&quot;&gt;D4&lt;/font&gt;" style="text;html=1;align=center;verticalAlign=middle;whiteSpace=wrap;rounded=0;rotation=-90;" vertex="1" parent="jCPE2xNXIkrLJKkH9MkI-38">
          <mxGeometry x="1.5" y="36.5" width="30" height="20" as="geometry" />
        </mxCell>
        <mxCell id="jCPE2xNXIkrLJKkH9MkI-42" value="" style="endArrow=classic;html=1;rounded=0;entryX=0;entryY=1;entryDx=0;entryDy=0;exitX=0.75;exitY=0;exitDx=0;exitDy=0;" edge="1" parent="1" source="bJXX9XfOQg-0xpeQix21-25" target="jCPE2xNXIkrLJKkH9MkI-39">
          <mxGeometry width="50" height="50" relative="1" as="geometry">
            <mxPoint x="1830" y="-440" as="sourcePoint" />
            <mxPoint x="1530" y="-580" as="targetPoint" />
          </mxGeometry>
        </mxCell>
        <mxCell id="jCPE2xNXIkrLJKkH9MkI-43" value="" style="endArrow=classic;html=1;rounded=0;entryX=0.878;entryY=1.015;entryDx=0;entryDy=0;entryPerimeter=0;exitX=0.08;exitY=-0.002;exitDx=0;exitDy=0;exitPerimeter=0;" edge="1" parent="1" source="bJXX9XfOQg-0xpeQix21-23" target="jCPE2xNXIkrLJKkH9MkI-39">
          <mxGeometry width="50" height="50" relative="1" as="geometry">
            <mxPoint x="1960" y="-180" as="sourcePoint" />
            <mxPoint x="2010" y="-230" as="targetPoint" />
          </mxGeometry>
        </mxCell>
        <mxCell id="jCPE2xNXIkrLJKkH9MkI-45" value="&lt;font style=&quot;font-size: 24px;&quot;&gt;رزرو&lt;/font&gt;" style="text;html=1;align=center;verticalAlign=middle;whiteSpace=wrap;rounded=0;rotation=-45;" vertex="1" parent="1">
          <mxGeometry x="1480" y="-530" width="60" height="50" as="geometry" />
        </mxCell>
        <mxCell id="jCPE2xNXIkrLJKkH9MkI-46" value="&lt;font style=&quot;font-size: 24px;&quot;&gt;ثبت نوبت آزاد&lt;/font&gt;" style="text;html=1;align=center;verticalAlign=middle;whiteSpace=wrap;rounded=0;rotation=30;" vertex="1" parent="1">
          <mxGeometry x="1955" y="-492.36" width="140" height="42.36" as="geometry" />
        </mxCell>
        <mxCell id="jCPE2xNXIkrLJKkH9MkI-47" value="" style="endArrow=classic;html=1;rounded=0;entryX=0.75;entryY=0;entryDx=0;entryDy=0;exitX=0.691;exitY=1.015;exitDx=0;exitDy=0;exitPerimeter=0;" edge="1" parent="1" source="jCPE2xNXIkrLJKkH9MkI-39" target="bJXX9XfOQg-0xpeQix21-1">
          <mxGeometry width="50" height="50" relative="1" as="geometry">
            <mxPoint x="1880" y="-260" as="sourcePoint" />
            <mxPoint x="1930" y="-310" as="targetPoint" />
          </mxGeometry>
        </mxCell>
        <mxCell id="jCPE2xNXIkrLJKkH9MkI-48" value="&lt;font style=&quot;font-size: 24px;&quot;&gt;برای گزارش‌ها&lt;/font&gt;" style="text;html=1;align=center;verticalAlign=middle;whiteSpace=wrap;rounded=0;rotation=-90;" vertex="1" parent="1">
          <mxGeometry x="1751" y="-410" width="150" height="20" as="geometry" />
        </mxCell>
        <mxCell id="jCPE2xNXIkrLJKkH9MkI-51" value="Appointment Database" style="group" connectable="0" vertex="1" parent="1">
          <mxGeometry x="670" y="-700" width="330" height="90" as="geometry" />
        </mxCell>
        <mxCell id="jCPE2xNXIkrLJKkH9MkI-52" value="" style="html=1;dashed=0;whiteSpace=wrap;shape=mxgraph.dfd.dataStoreID;align=left;spacingLeft=3;points=[[0,0],[0.5,0],[1,0],[0,0.5],[1,0.5],[0,1],[0.5,1],[1,1]];" vertex="1" parent="jCPE2xNXIkrLJKkH9MkI-51">
          <mxGeometry y="1.5" width="330" height="90" as="geometry" />
        </mxCell>
        <mxCell id="jCPE2xNXIkrLJKkH9MkI-53" value="&lt;font style=&quot;font-size: 24px;&quot;&gt;Prescription &amp;amp; Medical Records&lt;/font&gt;" style="text;html=1;align=center;verticalAlign=middle;whiteSpace=wrap;rounded=0;" vertex="1" parent="jCPE2xNXIkrLJKkH9MkI-51">
          <mxGeometry x="52.5" y="30" width="240" height="30" as="geometry" />
        </mxCell>
        <mxCell id="jCPE2xNXIkrLJKkH9MkI-54" value="&lt;font style=&quot;font-size: 24px;&quot;&gt;D5&lt;/font&gt;" style="text;html=1;align=center;verticalAlign=middle;whiteSpace=wrap;rounded=0;rotation=-90;" vertex="1" parent="jCPE2xNXIkrLJKkH9MkI-51">
          <mxGeometry x="1.5" y="36.5" width="30" height="20" as="geometry" />
        </mxCell>
        <mxCell id="jCPE2xNXIkrLJKkH9MkI-55" value="" style="endArrow=classic;html=1;rounded=0;entryX=1;entryY=0.5;entryDx=0;entryDy=0;exitX=0;exitY=0.25;exitDx=0;exitDy=0;" edge="1" parent="1" source="bJXX9XfOQg-0xpeQix21-23" target="jCPE2xNXIkrLJKkH9MkI-52">
          <mxGeometry width="50" height="50" relative="1" as="geometry">
            <mxPoint x="2530" y="-290" as="sourcePoint" />
            <mxPoint x="1770" y="310" as="targetPoint" />
          </mxGeometry>
        </mxCell>
        <mxCell id="jCPE2xNXIkrLJKkH9MkI-56" value="" style="endArrow=classic;html=1;rounded=0;exitX=0.329;exitY=0.963;exitDx=0;exitDy=0;exitPerimeter=0;entryX=0.111;entryY=0.047;entryDx=0;entryDy=0;entryPerimeter=0;" edge="1" parent="1" source="jCPE2xNXIkrLJKkH9MkI-52" target="bJXX9XfOQg-0xpeQix21-25">
          <mxGeometry width="50" height="50" relative="1" as="geometry">
            <mxPoint x="1540" y="60" as="sourcePoint" />
            <mxPoint x="1590" y="10" as="targetPoint" />
          </mxGeometry>
        </mxCell>
        <mxCell id="jCPE2xNXIkrLJKkH9MkI-57" value="" style="endArrow=classic;html=1;rounded=0;entryX=0;entryY=0;entryDx=0;entryDy=0;exitX=0.156;exitY=0.995;exitDx=0;exitDy=0;exitPerimeter=0;" edge="1" parent="1" source="jCPE2xNXIkrLJKkH9MkI-52" target="bJXX9XfOQg-0xpeQix21-27">
          <mxGeometry width="50" height="50" relative="1" as="geometry">
            <mxPoint x="480" y="-260" as="sourcePoint" />
            <mxPoint x="550" y="100" as="targetPoint" />
          </mxGeometry>
        </mxCell>
        <mxCell id="jCPE2xNXIkrLJKkH9MkI-58" value="&lt;font style=&quot;font-size: 24px;&quot;&gt;ثبت نسخه&lt;/font&gt;" style="text;html=1;align=center;verticalAlign=middle;whiteSpace=wrap;rounded=0;rotation=15;" vertex="1" parent="1">
          <mxGeometry x="1153.5017782649106" y="-629.9975819478456" width="140" height="42.36" as="geometry" />
        </mxCell>
        <mxCell id="jCPE2xNXIkrLJKkH9MkI-60" value="&lt;font style=&quot;font-size: 24px;&quot;&gt;مشاهده نسخه&lt;/font&gt;" style="text;html=1;align=center;verticalAlign=middle;whiteSpace=wrap;rounded=0;rotation=90;" vertex="1" parent="1">
          <mxGeometry x="746.4965952155061" y="-461.18435784202103" width="140" height="42.36" as="geometry" />
        </mxCell>
        <mxCell id="jCPE2xNXIkrLJKkH9MkI-61" value="&lt;font style=&quot;font-size: 36px;&quot;&gt;دارو&lt;/font&gt;" style="text;html=1;align=center;verticalAlign=middle;whiteSpace=wrap;rounded=0;rotation=-90;" vertex="1" parent="1">
          <mxGeometry x="650" y="-492.36" width="80" height="42.36" as="geometry" />
        </mxCell>
        <mxCell id="jCPE2xNXIkrLJKkH9MkI-63" value="Appointment Database" style="group" connectable="0" vertex="1" parent="1">
          <mxGeometry x="100" y="70" width="330" height="90" as="geometry" />
        </mxCell>
        <mxCell id="jCPE2xNXIkrLJKkH9MkI-64" value="" style="html=1;dashed=0;whiteSpace=wrap;shape=mxgraph.dfd.dataStoreID;align=left;spacingLeft=3;points=[[0,0],[0.5,0],[1,0],[0,0.5],[1,0.5],[0,1],[0.5,1],[1,1]];" vertex="1" parent="jCPE2xNXIkrLJKkH9MkI-63">
          <mxGeometry width="330" height="90" as="geometry" />
        </mxCell>
        <mxCell id="jCPE2xNXIkrLJKkH9MkI-65" value="&lt;font style=&quot;font-size: 24px;&quot;&gt;Pharmacy &amp;amp; Orders Database&lt;/font&gt;" style="text;html=1;align=center;verticalAlign=middle;whiteSpace=wrap;rounded=0;" vertex="1" parent="jCPE2xNXIkrLJKkH9MkI-63">
          <mxGeometry x="52.5" y="30" width="240" height="30" as="geometry" />
        </mxCell>
        <mxCell id="jCPE2xNXIkrLJKkH9MkI-66" value="&lt;font style=&quot;font-size: 24px;&quot;&gt;D6&lt;/font&gt;" style="text;html=1;align=center;verticalAlign=middle;whiteSpace=wrap;rounded=0;rotation=-90;" vertex="1" parent="jCPE2xNXIkrLJKkH9MkI-63">
          <mxGeometry x="1.5" y="36.5" width="30" height="20" as="geometry" />
        </mxCell>
        <mxCell id="jCPE2xNXIkrLJKkH9MkI-68" value="" style="endArrow=classic;html=1;rounded=0;exitX=0;exitY=0.25;exitDx=0;exitDy=0;entryX=0.251;entryY=1.043;entryDx=0;entryDy=0;entryPerimeter=0;" edge="1" parent="1" source="bJXX9XfOQg-0xpeQix21-27" target="jCPE2xNXIkrLJKkH9MkI-64">
          <mxGeometry width="50" height="50" relative="1" as="geometry">
            <mxPoint x="720" y="340" as="sourcePoint" />
            <mxPoint x="770" y="290" as="targetPoint" />
          </mxGeometry>
        </mxCell>
        <mxCell id="jCPE2xNXIkrLJKkH9MkI-69" value="" style="endArrow=classic;html=1;rounded=0;exitX=1;exitY=0;exitDx=0;exitDy=0;entryX=0;entryY=0.25;entryDx=0;entryDy=0;" edge="1" parent="1" source="jCPE2xNXIkrLJKkH9MkI-64" target="bJXX9XfOQg-0xpeQix21-25">
          <mxGeometry width="50" height="50" relative="1" as="geometry">
            <mxPoint x="720" y="340" as="sourcePoint" />
            <mxPoint x="770" y="290" as="targetPoint" />
          </mxGeometry>
        </mxCell>
        <mxCell id="jCPE2xNXIkrLJKkH9MkI-72" value="&lt;font style=&quot;font-size: 24px;&quot;&gt;ثبت دارو&lt;/font&gt;" style="text;html=1;align=center;verticalAlign=middle;whiteSpace=wrap;rounded=0;rotation=60;" vertex="1" parent="1">
          <mxGeometry x="290" y="450" width="110" height="30" as="geometry" />
        </mxCell>
        <mxCell id="jCPE2xNXIkrLJKkH9MkI-74" value="&lt;font style=&quot;font-size: 24px;&quot;&gt;پیگیری سفارش دارو&lt;/font&gt;" style="text;html=1;align=center;verticalAlign=middle;whiteSpace=wrap;rounded=0;rotation=-25;" vertex="1" parent="1">
          <mxGeometry x="429.9962120245875" y="-30.00378797541248" width="180" height="30" as="geometry" />
        </mxCell>
        <mxCell id="jCPE2xNXIkrLJKkH9MkI-75" value="Appointment Database" style="group" connectable="0" vertex="1" parent="1">
          <mxGeometry x="270" y="1670" width="330" height="90" as="geometry" />
        </mxCell>
        <mxCell id="jCPE2xNXIkrLJKkH9MkI-76" value="" style="html=1;dashed=0;whiteSpace=wrap;shape=mxgraph.dfd.dataStoreID;align=left;spacingLeft=3;points=[[0,0],[0.5,0],[1,0],[0,0.5],[1,0.5],[0,1],[0.5,1],[1,1]];" vertex="1" parent="jCPE2xNXIkrLJKkH9MkI-75">
          <mxGeometry width="330" height="90" as="geometry" />
        </mxCell>
        <mxCell id="jCPE2xNXIkrLJKkH9MkI-77" value="&lt;font style=&quot;font-size: 24px;&quot;&gt;Payment &amp;amp; Billing Database&lt;/font&gt;" style="text;html=1;align=center;verticalAlign=middle;whiteSpace=wrap;rounded=0;" vertex="1" parent="jCPE2xNXIkrLJKkH9MkI-75">
          <mxGeometry x="52.5" y="30" width="240" height="30" as="geometry" />
        </mxCell>
        <mxCell id="jCPE2xNXIkrLJKkH9MkI-78" value="&lt;font style=&quot;font-size: 24px;&quot;&gt;D7&lt;/font&gt;" style="text;html=1;align=center;verticalAlign=middle;whiteSpace=wrap;rounded=0;rotation=-90;" vertex="1" parent="jCPE2xNXIkrLJKkH9MkI-75">
          <mxGeometry x="1.5" y="36.5" width="30" height="20" as="geometry" />
        </mxCell>
        <mxCell id="jCPE2xNXIkrLJKkH9MkI-80" value="" style="endArrow=classic;html=1;rounded=0;exitX=1;exitY=1;exitDx=0;exitDy=0;entryX=0;entryY=1;entryDx=0;entryDy=0;" edge="1" parent="1" source="jCPE2xNXIkrLJKkH9MkI-76" target="bJXX9XfOQg-0xpeQix21-31">
          <mxGeometry width="50" height="50" relative="1" as="geometry">
            <mxPoint x="1320" y="1600" as="sourcePoint" />
            <mxPoint x="1370" y="1550" as="targetPoint" />
          </mxGeometry>
        </mxCell>
        <mxCell id="jCPE2xNXIkrLJKkH9MkI-81" value="" style="endArrow=classic;html=1;rounded=0;exitX=0.668;exitY=0.004;exitDx=0;exitDy=0;exitPerimeter=0;entryX=0;entryY=1;entryDx=0;entryDy=0;" edge="1" parent="1" source="jCPE2xNXIkrLJKkH9MkI-76" target="bJXX9XfOQg-0xpeQix21-29">
          <mxGeometry width="50" height="50" relative="1" as="geometry">
            <mxPoint x="1060" y="930" as="sourcePoint" />
            <mxPoint x="420" y="950" as="targetPoint" />
          </mxGeometry>
        </mxCell>
        <mxCell id="jCPE2xNXIkrLJKkH9MkI-82" value="" style="endArrow=classic;html=1;rounded=0;entryX=0.5;entryY=0;entryDx=0;entryDy=0;exitX=0.081;exitY=0.98;exitDx=0;exitDy=0;exitPerimeter=0;" edge="1" parent="1" source="bJXX9XfOQg-0xpeQix21-25" target="jCPE2xNXIkrLJKkH9MkI-76">
          <mxGeometry width="50" height="50" relative="1" as="geometry">
            <mxPoint x="330" y="870" as="sourcePoint" />
            <mxPoint x="1110" y="880" as="targetPoint" />
          </mxGeometry>
        </mxCell>
        <mxCell id="jCPE2xNXIkrLJKkH9MkI-84" value="&lt;font style=&quot;font-size: 24px;&quot;&gt;پرداخت هزینه ویزیت/دارو&lt;/font&gt;" style="text;html=1;align=center;verticalAlign=middle;whiteSpace=wrap;rounded=0;rotation=-75;" vertex="1" parent="1">
          <mxGeometry x="310" y="1460" width="250" height="30" as="geometry" />
        </mxCell>
        <mxCell id="jCPE2xNXIkrLJKkH9MkI-85" value="&lt;font style=&quot;font-size: 24px;&quot;&gt;تراکنش بانکی&lt;/font&gt;" style="text;html=1;align=center;verticalAlign=middle;whiteSpace=wrap;rounded=0;rotation=-75;" vertex="1" parent="1">
          <mxGeometry x="470" y="1550" width="150" height="30" as="geometry" />
        </mxCell>
        <mxCell id="jCPE2xNXIkrLJKkH9MkI-86" value="&lt;font style=&quot;font-size: 24px;&quot;&gt;گزارش مالی&lt;/font&gt;" style="text;html=1;align=center;verticalAlign=middle;whiteSpace=wrap;rounded=0;rotation=-15;" vertex="1" parent="1">
          <mxGeometry x="690" y="1730" width="140" height="30" as="geometry" />
        </mxCell>
        <mxCell id="jCPE2xNXIkrLJKkH9MkI-88" value="Appointment Database" style="group" connectable="0" vertex="1" parent="1">
          <mxGeometry x="-680" y="855" width="330" height="90" as="geometry" />
        </mxCell>
        <mxCell id="jCPE2xNXIkrLJKkH9MkI-89" value="" style="html=1;dashed=0;whiteSpace=wrap;shape=mxgraph.dfd.dataStoreID;align=left;spacingLeft=3;points=[[0,0],[0.5,0],[1,0],[0,0.5],[1,0.5],[0,1],[0.5,1],[1,1]];" vertex="1" parent="jCPE2xNXIkrLJKkH9MkI-88">
          <mxGeometry width="330" height="90" as="geometry" />
        </mxCell>
        <mxCell id="jCPE2xNXIkrLJKkH9MkI-90" value="&lt;font style=&quot;font-size: 24px;&quot;&gt;Insurance Database&lt;/font&gt;" style="text;html=1;align=center;verticalAlign=middle;whiteSpace=wrap;rounded=0;" vertex="1" parent="jCPE2xNXIkrLJKkH9MkI-88">
          <mxGeometry x="52.5" y="30" width="240" height="30" as="geometry" />
        </mxCell>
        <mxCell id="jCPE2xNXIkrLJKkH9MkI-91" value="&lt;font style=&quot;font-size: 24px;&quot;&gt;D8&lt;/font&gt;" style="text;html=1;align=center;verticalAlign=middle;whiteSpace=wrap;rounded=0;rotation=-90;" vertex="1" parent="jCPE2xNXIkrLJKkH9MkI-88">
          <mxGeometry x="1.5" y="36.5" width="30" height="20" as="geometry" />
        </mxCell>
        <mxCell id="jCPE2xNXIkrLJKkH9MkI-93" value="" style="endArrow=classic;html=1;rounded=0;entryX=1;entryY=0.5;entryDx=0;entryDy=0;exitX=0;exitY=0.25;exitDx=0;exitDy=0;" edge="1" parent="1" source="bJXX9XfOQg-0xpeQix21-28" target="jCPE2xNXIkrLJKkH9MkI-89">
          <mxGeometry width="50" height="50" relative="1" as="geometry">
            <mxPoint x="50" y="650" as="sourcePoint" />
            <mxPoint x="100" y="600" as="targetPoint" />
          </mxGeometry>
        </mxCell>
        <mxCell id="jCPE2xNXIkrLJKkH9MkI-94" value="" style="endArrow=classic;html=1;rounded=0;exitX=1;exitY=0;exitDx=0;exitDy=0;entryX=0;entryY=0.75;entryDx=0;entryDy=0;" edge="1" parent="1" source="jCPE2xNXIkrLJKkH9MkI-89" target="bJXX9XfOQg-0xpeQix21-25">
          <mxGeometry width="50" height="50" relative="1" as="geometry">
            <mxPoint x="380" y="650" as="sourcePoint" />
            <mxPoint x="430" y="600" as="targetPoint" />
          </mxGeometry>
        </mxCell>
        <mxCell id="jCPE2xNXIkrLJKkH9MkI-95" value="" style="endArrow=classic;html=1;rounded=0;exitX=0.848;exitY=1.051;exitDx=0;exitDy=0;entryX=0;entryY=0.5;entryDx=0;entryDy=0;exitPerimeter=0;" edge="1" parent="1" source="jCPE2xNXIkrLJKkH9MkI-89" target="bJXX9XfOQg-0xpeQix21-27">
          <mxGeometry width="50" height="50" relative="1" as="geometry">
            <mxPoint x="380" y="650" as="sourcePoint" />
            <mxPoint x="430" y="600" as="targetPoint" />
          </mxGeometry>
        </mxCell>
        <mxCell id="jCPE2xNXIkrLJKkH9MkI-97" value="&lt;font style=&quot;font-size: 24px;&quot;&gt;استفاده از بیمه در پرداخت‌ها&lt;/font&gt;" style="text;html=1;align=center;verticalAlign=middle;whiteSpace=wrap;rounded=0;rotation=-30;" vertex="1" parent="1">
          <mxGeometry x="-380" y="690" width="290" height="30" as="geometry" />
        </mxCell>
        <mxCell id="jCPE2xNXIkrLJKkH9MkI-98" value="&lt;font style=&quot;font-size: 24px;&quot;&gt;اطلاعات بیمه&lt;/font&gt;" style="text;html=1;align=center;verticalAlign=middle;whiteSpace=wrap;rounded=0;rotation=-15;" vertex="1" parent="1">
          <mxGeometry x="-240" y="820" width="180" height="30" as="geometry" />
        </mxCell>
        <mxCell id="jCPE2xNXIkrLJKkH9MkI-99" value="&lt;font style=&quot;font-size: 24px;&quot;&gt;پوشش هزینه&lt;/font&gt;" style="text;html=1;align=center;verticalAlign=middle;whiteSpace=wrap;rounded=0;rotation=15;" vertex="1" parent="1">
          <mxGeometry x="-250" y="1000" width="170" height="30" as="geometry" />
        </mxCell>
        <mxCell id="jCPE2xNXIkrLJKkH9MkI-101" value="" style="endArrow=classic;html=1;rounded=0;entryX=0;entryY=1;entryDx=0;entryDy=0;exitX=1;exitY=1;exitDx=0;exitDy=0;" edge="1" parent="1" source="jCPE2xNXIkrLJKkH9MkI-89" target="bJXX9XfOQg-0xpeQix21-24">
          <mxGeometry width="50" height="50" relative="1" as="geometry">
            <mxPoint x="-260" y="940" as="sourcePoint" />
            <mxPoint x="1330" y="940" as="targetPoint" />
          </mxGeometry>
        </mxCell>
        <mxCell id="jCPE2xNXIkrLJKkH9MkI-102" value="&lt;font style=&quot;font-size: 24px;&quot;&gt;پوشش هزینه&lt;/font&gt;" style="text;html=1;align=center;verticalAlign=middle;whiteSpace=wrap;rounded=0;rotation=-5;" vertex="1" parent="1">
          <mxGeometry x="-235.0040190888914" y="909.9985062280502" width="170" height="30" as="geometry" />
        </mxCell>
        <mxCell id="jCPE2xNXIkrLJKkH9MkI-103" value="Hospital &amp;amp; Nurse Database" style="group" connectable="0" vertex="1" parent="1">
          <mxGeometry x="3180" y="60" width="330" height="90" as="geometry" />
        </mxCell>
        <mxCell id="jCPE2xNXIkrLJKkH9MkI-104" value="" style="html=1;dashed=0;whiteSpace=wrap;shape=mxgraph.dfd.dataStoreID;align=left;spacingLeft=3;points=[[0,0],[0.5,0],[1,0],[0,0.5],[1,0.5],[0,1],[0.5,1],[1,1]];" vertex="1" parent="jCPE2xNXIkrLJKkH9MkI-103">
          <mxGeometry width="330" height="90" as="geometry" />
        </mxCell>
        <mxCell id="jCPE2xNXIkrLJKkH9MkI-105" value="&lt;font style=&quot;font-size: 24px;&quot;&gt;Hospital &amp;amp; Nurse Database&lt;/font&gt;" style="text;html=1;align=center;verticalAlign=middle;whiteSpace=wrap;rounded=0;" vertex="1" parent="jCPE2xNXIkrLJKkH9MkI-103">
          <mxGeometry x="52.5" y="30" width="240" height="30" as="geometry" />
        </mxCell>
        <mxCell id="jCPE2xNXIkrLJKkH9MkI-106" value="&lt;font style=&quot;font-size: 24px;&quot;&gt;D9&lt;/font&gt;" style="text;html=1;align=center;verticalAlign=middle;whiteSpace=wrap;rounded=0;rotation=-90;" vertex="1" parent="jCPE2xNXIkrLJKkH9MkI-103">
          <mxGeometry x="1.5" y="36.5" width="30" height="20" as="geometry" />
        </mxCell>
        <mxCell id="jCPE2xNXIkrLJKkH9MkI-107" value="" style="endArrow=classic;html=1;rounded=0;exitX=1;exitY=0;exitDx=0;exitDy=0;entryX=0.22;entryY=0.946;entryDx=0;entryDy=0;entryPerimeter=0;" edge="1" parent="1" source="bJXX9XfOQg-0xpeQix21-24" target="jCPE2xNXIkrLJKkH9MkI-104">
          <mxGeometry width="50" height="50" relative="1" as="geometry">
            <mxPoint x="3020" y="620" as="sourcePoint" />
            <mxPoint x="3070" y="570" as="targetPoint" />
          </mxGeometry>
        </mxCell>
        <mxCell id="jCPE2xNXIkrLJKkH9MkI-108" value="Hospital &amp;amp; Nurse Database" style="group" connectable="0" vertex="1" parent="1">
          <mxGeometry x="3730" y="-630" width="330" height="90" as="geometry" />
        </mxCell>
        <mxCell id="jCPE2xNXIkrLJKkH9MkI-109" value="" style="html=1;dashed=0;whiteSpace=wrap;shape=mxgraph.dfd.dataStoreID;align=left;spacingLeft=3;points=[[0,0],[0.5,0],[1,0],[0,0.5],[1,0.5],[0,1],[0.5,1],[1,1]];" vertex="1" parent="jCPE2xNXIkrLJKkH9MkI-108">
          <mxGeometry width="330" height="90" as="geometry" />
        </mxCell>
        <mxCell id="jCPE2xNXIkrLJKkH9MkI-110" value="&lt;font style=&quot;font-size: 24px;&quot;&gt;Educational Content &amp;amp; Feedback Database&lt;/font&gt;" style="text;html=1;align=center;verticalAlign=middle;whiteSpace=wrap;rounded=0;" vertex="1" parent="jCPE2xNXIkrLJKkH9MkI-108">
          <mxGeometry x="52.5" y="30" width="240" height="30" as="geometry" />
        </mxCell>
        <mxCell id="jCPE2xNXIkrLJKkH9MkI-111" value="&lt;font style=&quot;font-size: 24px;&quot;&gt;D10&lt;/font&gt;" style="text;html=1;align=center;verticalAlign=middle;whiteSpace=wrap;rounded=0;rotation=-90;" vertex="1" parent="jCPE2xNXIkrLJKkH9MkI-108">
          <mxGeometry x="4.25" y="34.75" width="30" height="23.5" as="geometry" />
        </mxCell>
        <mxCell id="jCPE2xNXIkrLJKkH9MkI-112" value="Hospital &amp;amp; Nurse Database" style="group" connectable="0" vertex="1" parent="1">
          <mxGeometry x="1050" y="-1300" width="330" height="90" as="geometry" />
        </mxCell>
        <mxCell id="jCPE2xNXIkrLJKkH9MkI-113" value="" style="html=1;dashed=0;whiteSpace=wrap;shape=mxgraph.dfd.dataStoreID;align=left;spacingLeft=3;points=[[0,0],[0.5,0],[1,0],[0,0.5],[1,0.5],[0,1],[0.5,1],[1,1]];" vertex="1" parent="jCPE2xNXIkrLJKkH9MkI-112">
          <mxGeometry width="330" height="90" as="geometry" />
        </mxCell>
        <mxCell id="jCPE2xNXIkrLJKkH9MkI-114" value="&lt;font style=&quot;font-size: 24px;&quot;&gt;Communication &amp;amp; Chat Database&lt;/font&gt;" style="text;html=1;align=center;verticalAlign=middle;whiteSpace=wrap;rounded=0;" vertex="1" parent="jCPE2xNXIkrLJKkH9MkI-112">
          <mxGeometry x="52.5" y="30" width="240" height="30" as="geometry" />
        </mxCell>
        <mxCell id="jCPE2xNXIkrLJKkH9MkI-115" value="&lt;font style=&quot;font-size: 24px;&quot;&gt;D11&lt;/font&gt;" style="text;html=1;align=center;verticalAlign=middle;whiteSpace=wrap;rounded=0;rotation=-90;" vertex="1" parent="jCPE2xNXIkrLJKkH9MkI-112">
          <mxGeometry y="40" width="30" height="20" as="geometry" />
        </mxCell>
        <mxCell id="jCPE2xNXIkrLJKkH9MkI-116" value="" style="endArrow=classic;html=1;rounded=0;exitX=1;exitY=0;exitDx=0;exitDy=0;entryX=0;entryY=1;entryDx=0;entryDy=0;" edge="1" parent="1" source="bJXX9XfOQg-0xpeQix21-26" target="jCPE2xNXIkrLJKkH9MkI-104">
          <mxGeometry width="50" height="50" relative="1" as="geometry">
            <mxPoint x="3070" y="410" as="sourcePoint" />
            <mxPoint x="3120" y="360" as="targetPoint" />
          </mxGeometry>
        </mxCell>
        <mxCell id="jCPE2xNXIkrLJKkH9MkI-117" value="" style="endArrow=classic;html=1;rounded=0;exitX=-0.003;exitY=0.773;exitDx=0;exitDy=0;exitPerimeter=0;entryX=1;entryY=0.75;entryDx=0;entryDy=0;" edge="1" parent="1" source="jCPE2xNXIkrLJKkH9MkI-104" target="bJXX9XfOQg-0xpeQix21-25">
          <mxGeometry width="50" height="50" relative="1" as="geometry">
            <mxPoint x="3100" y="80" as="sourcePoint" />
            <mxPoint x="2720" y="160" as="targetPoint" />
          </mxGeometry>
        </mxCell>
        <mxCell id="jCPE2xNXIkrLJKkH9MkI-119" value="&lt;font style=&quot;font-size: 24px;&quot;&gt;ثبت اطلاعات&lt;/font&gt;" style="text;html=1;align=center;verticalAlign=middle;whiteSpace=wrap;rounded=0;rotation=-25;" vertex="1" parent="1">
          <mxGeometry x="2990" y="180" width="150" height="30" as="geometry" />
        </mxCell>
        <mxCell id="jCPE2xNXIkrLJKkH9MkI-120" value="&lt;font style=&quot;font-size: 24px;&quot;&gt;ثبت اطلاعات&lt;/font&gt;" style="text;html=1;align=center;verticalAlign=middle;whiteSpace=wrap;rounded=0;rotation=-45;" vertex="1" parent="1">
          <mxGeometry x="3059.996722648218" y="229.52031577702508" width="150" height="30" as="geometry" />
        </mxCell>
        <mxCell id="jCPE2xNXIkrLJKkH9MkI-121" value="&lt;font style=&quot;font-size: 24px;&quot;&gt;درخواست خدمات پرستاری/بستری در منزل&lt;/font&gt;" style="text;html=1;align=center;verticalAlign=middle;whiteSpace=wrap;rounded=0;rotation=5;" vertex="1" parent="1">
          <mxGeometry x="2900" y="60" width="270" height="30" as="geometry" />
        </mxCell>
        <mxCell id="jCPE2xNXIkrLJKkH9MkI-122" value="" style="endArrow=classic;html=1;rounded=0;exitX=1;exitY=0.25;exitDx=0;exitDy=0;entryX=1;entryY=1;entryDx=0;entryDy=0;" edge="1" parent="1" source="bJXX9XfOQg-0xpeQix21-31" target="jCPE2xNXIkrLJKkH9MkI-109">
          <mxGeometry width="50" height="50" relative="1" as="geometry">
            <mxPoint x="3050" y="280" as="sourcePoint" />
            <mxPoint x="3100" y="230" as="targetPoint" />
          </mxGeometry>
        </mxCell>
        <mxCell id="jCPE2xNXIkrLJKkH9MkI-123" value="" style="endArrow=classic;html=1;rounded=0;exitX=1;exitY=0;exitDx=0;exitDy=0;entryX=0;entryY=0;entryDx=0;entryDy=0;" edge="1" parent="1" source="bJXX9XfOQg-0xpeQix21-25" target="jCPE2xNXIkrLJKkH9MkI-109">
          <mxGeometry width="50" height="50" relative="1" as="geometry">
            <mxPoint x="2100" y="200" as="sourcePoint" />
            <mxPoint x="3550" y="-390" as="targetPoint" />
          </mxGeometry>
        </mxCell>
        <mxCell id="jCPE2xNXIkrLJKkH9MkI-124" value="" style="endArrow=classic;html=1;rounded=0;entryX=1;entryY=0.5;entryDx=0;entryDy=0;exitX=0.5;exitY=1;exitDx=0;exitDy=0;" edge="1" parent="1" source="jCPE2xNXIkrLJKkH9MkI-109" target="bJXX9XfOQg-0xpeQix21-23">
          <mxGeometry width="50" height="50" relative="1" as="geometry">
            <mxPoint x="3510" y="-370" as="sourcePoint" />
            <mxPoint x="3270" y="-240" as="targetPoint" />
          </mxGeometry>
        </mxCell>
        <mxCell id="jCPE2xNXIkrLJKkH9MkI-125" value="" style="endArrow=classic;html=1;rounded=0;exitX=0;exitY=0.5;exitDx=0;exitDy=0;entryX=1.008;entryY=0.14;entryDx=0;entryDy=0;entryPerimeter=0;" edge="1" parent="1" source="jCPE2xNXIkrLJKkH9MkI-109" target="bJXX9XfOQg-0xpeQix21-25">
          <mxGeometry width="50" height="50" relative="1" as="geometry">
            <mxPoint x="2760" y="-230" as="sourcePoint" />
            <mxPoint x="2660" y="-260" as="targetPoint" />
          </mxGeometry>
        </mxCell>
        <mxCell id="jCPE2xNXIkrLJKkH9MkI-126" value="&lt;font style=&quot;font-size: 24px;&quot;&gt;نمایش محتوا&lt;/font&gt;" style="text;html=1;align=center;verticalAlign=middle;whiteSpace=wrap;rounded=0;rotation=-15;" vertex="1" parent="1">
          <mxGeometry x="3610.0023579538592" y="-499.99901356389773" width="150" height="30" as="geometry" />
        </mxCell>
        <mxCell id="jCPE2xNXIkrLJKkH9MkI-127" value="&lt;font style=&quot;font-size: 24px;&quot;&gt;نمایش محتوا&lt;/font&gt;" style="text;html=1;align=center;verticalAlign=middle;whiteSpace=wrap;rounded=0;rotation=-15;" vertex="1" parent="1">
          <mxGeometry x="3530.0023579538592" y="-539.9990135638977" width="150" height="30" as="geometry" />
        </mxCell>
        <mxCell id="jCPE2xNXIkrLJKkH9MkI-128" value="&lt;font style=&quot;font-size: 24px;&quot;&gt;ثبت نظر&lt;/font&gt;" style="text;html=1;align=center;verticalAlign=middle;whiteSpace=wrap;rounded=0;rotation=-15;" vertex="1" parent="1">
          <mxGeometry x="3531.03" y="-652.23" width="89.99" height="30" as="geometry" />
        </mxCell>
        <mxCell id="jCPE2xNXIkrLJKkH9MkI-129" value="&lt;font style=&quot;font-size: 24px;&quot;&gt;بارگذاری محتوا&lt;/font&gt;" style="text;html=1;align=center;verticalAlign=middle;whiteSpace=wrap;rounded=0;rotation=-50;" vertex="1" parent="1">
          <mxGeometry x="3859.996722648218" y="-454.9996842229749" width="150" height="30" as="geometry" />
        </mxCell>
        <mxCell id="jCPE2xNXIkrLJKkH9MkI-130" value="" style="endArrow=classic;html=1;rounded=0;exitX=0.25;exitY=0;exitDx=0;exitDy=0;" edge="1" parent="1" source="bJXX9XfOQg-0xpeQix21-25" target="jCPE2xNXIkrLJKkH9MkI-113">
          <mxGeometry width="50" height="50" relative="1" as="geometry">
            <mxPoint x="1010" y="-730" as="sourcePoint" />
            <mxPoint x="1200" y="-1320" as="targetPoint" />
          </mxGeometry>
        </mxCell>
        <mxCell id="jCPE2xNXIkrLJKkH9MkI-131" value="" style="endArrow=classic;html=1;rounded=0;entryX=0.338;entryY=-0.042;entryDx=0;entryDy=0;entryPerimeter=0;exitX=0.678;exitY=0.967;exitDx=0;exitDy=0;exitPerimeter=0;" edge="1" parent="1" source="jCPE2xNXIkrLJKkH9MkI-113" target="bJXX9XfOQg-0xpeQix21-25">
          <mxGeometry width="50" height="50" relative="1" as="geometry">
            <mxPoint x="1010" y="-730" as="sourcePoint" />
            <mxPoint x="960" y="-890" as="targetPoint" />
          </mxGeometry>
        </mxCell>
        <mxCell id="jCPE2xNXIkrLJKkH9MkI-132" value="&lt;font style=&quot;font-size: 24px;&quot;&gt;ارسال پیام/جلسه ویدیو&lt;/font&gt;" style="text;html=1;align=center;verticalAlign=middle;whiteSpace=wrap;rounded=0;rotation=-75;" vertex="1" parent="1">
          <mxGeometry x="980" y="-1070" width="253.5" height="42.36" as="geometry" />
        </mxCell>
        <mxCell id="jCPE2xNXIkrLJKkH9MkI-133" value="&lt;font style=&quot;font-size: 24px;&quot;&gt;دریافت مشاوره&lt;/font&gt;" style="text;html=1;align=center;verticalAlign=middle;whiteSpace=wrap;rounded=0;rotation=-75;" vertex="1" parent="1">
          <mxGeometry x="1123.503622967547" y="-1059.9971141425892" width="253.5" height="42.36" as="geometry" />
        </mxCell>
        <mxCell id="jCPE2xNXIkrLJKkH9MkI-134" value="" style="endArrow=classic;html=1;rounded=0;entryX=0.839;entryY=0.967;entryDx=0;entryDy=0;entryPerimeter=0;exitX=0.18;exitY=0.024;exitDx=0;exitDy=0;exitPerimeter=0;" edge="1" parent="1" source="bJXX9XfOQg-0xpeQix21-23" target="jCPE2xNXIkrLJKkH9MkI-113">
          <mxGeometry width="50" height="50" relative="1" as="geometry">
            <mxPoint x="2160" y="-760" as="sourcePoint" />
            <mxPoint x="2210" y="-810" as="targetPoint" />
          </mxGeometry>
        </mxCell>
        <mxCell id="jCPE2xNXIkrLJKkH9MkI-135" value="" style="endArrow=classic;html=1;rounded=0;entryX=0.25;entryY=0;entryDx=0;entryDy=0;exitX=1;exitY=0.5;exitDx=0;exitDy=0;" edge="1" parent="1" source="jCPE2xNXIkrLJKkH9MkI-113" target="bJXX9XfOQg-0xpeQix21-23">
          <mxGeometry width="50" height="50" relative="1" as="geometry">
            <mxPoint x="2160" y="-760" as="sourcePoint" />
            <mxPoint x="2210" y="-810" as="targetPoint" />
          </mxGeometry>
        </mxCell>
        <mxCell id="jCPE2xNXIkrLJKkH9MkI-136" value="&lt;font style=&quot;font-size: 24px;&quot;&gt;ارسال پیام/جلسه ویدیو&lt;/font&gt;" style="text;html=1;align=center;verticalAlign=middle;whiteSpace=wrap;rounded=0;rotation=45;" vertex="1" parent="1">
          <mxGeometry x="1333.253622967547" y="-1079.9971141425892" width="253.5" height="42.36" as="geometry" />
        </mxCell>
        <mxCell id="jCPE2xNXIkrLJKkH9MkI-137" value="&lt;font style=&quot;font-size: 24px;&quot;&gt;مشاوره دادن&lt;/font&gt;" style="text;html=1;align=center;verticalAlign=middle;whiteSpace=wrap;rounded=0;rotation=45;" vertex="1" parent="1">
          <mxGeometry x="1483.8899999999999" y="-1160" width="141.75" height="42.36" as="geometry" />
        </mxCell>
        <mxCell id="c4w7X3bbMOJEDzX5YVL0-1" value="" style="group" connectable="0" vertex="1" parent="1">
          <mxGeometry x="1622" y="548" width="220" height="220" as="geometry" />
        </mxCell>
        <mxCell id="c4w7X3bbMOJEDzX5YVL0-2" value="" style="ellipse;whiteSpace=wrap;html=1;aspect=fixed;" vertex="1" parent="c4w7X3bbMOJEDzX5YVL0-1">
          <mxGeometry y="12" width="220" height="220" as="geometry" />
        </mxCell>
        <mxCell id="c4w7X3bbMOJEDzX5YVL0-4" value="&lt;font style=&quot;font-size: 20px;&quot;&gt;&lt;b style=&quot;&quot;&gt;Hospitalization &amp;amp; Nurse Assignment&lt;/b&gt;&lt;/font&gt;" style="text;html=1;align=center;verticalAlign=middle;whiteSpace=wrap;rounded=0;" vertex="1" parent="c4w7X3bbMOJEDzX5YVL0-1">
          <mxGeometry x="60" y="96" width="100" height="30" as="geometry" />
        </mxCell>
        <mxCell id="c4w7X3bbMOJEDzX5YVL0-6" value="" style="group" connectable="0" vertex="1" parent="1">
          <mxGeometry x="1586.75" y="342" width="310" height="230" as="geometry" />
        </mxCell>
        <mxCell id="c4w7X3bbMOJEDzX5YVL0-7" value="" style="group" connectable="0" vertex="1" parent="c4w7X3bbMOJEDzX5YVL0-6">
          <mxGeometry x="33.513513513513516" width="221.05910633484163" height="216.19710252982313" as="geometry" />
        </mxCell>
        <mxCell id="c4w7X3bbMOJEDzX5YVL0-8" value="" style="ellipse;whiteSpace=wrap;html=1;aspect=fixed;" vertex="1" parent="c4w7X3bbMOJEDzX5YVL0-7">
          <mxGeometry width="216.19710252982313" height="216.19710252982313" as="geometry" />
        </mxCell>
        <mxCell id="c4w7X3bbMOJEDzX5YVL0-9" value="&lt;span style=&quot;color: rgb(38, 38, 38); font-family: -apple-system, BlinkMacSystemFont, &amp;quot;Segoe UI&amp;quot;, Helvetica, Arial, sans-serif, &amp;quot;Apple Color Emoji&amp;quot;, &amp;quot;Segoe UI Emoji&amp;quot;; font-size: 20px; font-weight: 600; text-align: start; background-color: rgb(255, 255, 255);&quot;&gt;Video/Appointment Management&lt;/span&gt;" style="text;html=1;align=center;verticalAlign=middle;whiteSpace=wrap;rounded=0;" vertex="1" parent="c4w7X3bbMOJEDzX5YVL0-7">
          <mxGeometry x="16.65303821062441" y="79.30818181818181" width="187.74241379310342" height="71.38363636363636" as="geometry" />
        </mxCell>
      </root>
    </mxGraphModel>
  </diagram>
</mxfile>
